<?xml version="1.0" encoding="UTF-8" standalone="no"?>
<!-- Created with Inkscape (http://www.inkscape.org/) -->

<svg
   width="1920px"
   height="1080px"
   viewBox="0 0 1920 1080"
   version="1.1"
   id="SVGRoot"
   sodipodi:docname="english.svg"
   xml:space="preserve"
   inkscape:version="1.2.1 (9c6d41e410, 2022-07-14)"
   xmlns:inkscape="http://www.inkscape.org/namespaces/inkscape"
   xmlns:sodipodi="http://sodipodi.sourceforge.net/DTD/sodipodi-0.dtd"
   xmlns:xlink="http://www.w3.org/1999/xlink"
   xmlns="http://www.w3.org/2000/svg"
   xmlns:svg="http://www.w3.org/2000/svg"><sodipodi:namedview
     id="namedview5794"
     pagecolor="#ffffff"
     bordercolor="#cccccc"
     borderopacity="1"
     inkscape:showpageshadow="0"
     inkscape:pageopacity="1"
     inkscape:pagecheckerboard="0"
     inkscape:deskcolor="#d1d1d1"
     inkscape:document-units="px"
     showgrid="false"
     inkscape:zoom="0.54110831"
     inkscape:cx="741.0716"
     inkscape:cy="631.1121"
     inkscape:window-width="1920"
     inkscape:window-height="1003"
     inkscape:window-x="0"
     inkscape:window-y="41"
     inkscape:window-maximized="1"
     inkscape:current-layer="layer2" /><defs
     id="defs5789"><linearGradient
       inkscape:collect="always"
       xlink:href="#linearGradient177"
       id="linearGradient179"
       x1="28.532473"
       y1="140.89404"
       x2="173.83205"
       y2="96.452278"
       gradientUnits="userSpaceOnUse"
       gradientTransform="matrix(4.0735226,0,0,3.7414854,119.41962,-281.22843)" /><linearGradient
       inkscape:collect="always"
       id="linearGradient177"><stop
         style="stop-color:#00ccff;stop-opacity:1"
         offset="0"
         id="stop173" /><stop
         style="stop-color:#00d455;stop-opacity:1"
         offset="1"
         id="stop175" /></linearGradient></defs><g
     inkscape:label="图层 1"
     inkscape:groupmode="layer"
     id="layer1"
     style="display:none"
     sodipodi:insensitive="true"><rect
       style="fill:url(#linearGradient179);fill-opacity:1;stroke-width:1.03292"
       id="rect171"
       width="1535.718"
       height="1077.5479"
       x="217.69566"
       y="1.5950586" /><path
       style="fill:#ffffff;stroke:#ffffff;stroke-width:7.18037;stroke-linecap:round;stroke-dasharray:none;stroke-dashoffset:0;stroke-opacity:1"
       d="m 593.71053,544.89034 782.74757,0.14857"
       id="path745" /><text
       xml:space="preserve"
       style="font-style:normal;font-variant:normal;font-weight:bold;font-stretch:normal;font-size:139.196px;font-family:'Source Han Serif TC';-inkscape-font-specification:'Source Han Serif TC, Bold';font-variant-ligatures:normal;font-variant-caps:normal;font-variant-numeric:normal;font-variant-east-asian:normal;fill:#ffffff;stroke-width:1.89979"
       x="587.17169"
       y="506.31683"
       id="text571"><tspan
         sodipodi:role="line"
         id="tspan569"
         style="font-style:normal;font-variant:normal;font-weight:bold;font-stretch:normal;font-size:139.196px;font-family:'Source Han Serif TC';-inkscape-font-specification:'Source Han Serif TC, Bold';font-variant-ligatures:normal;font-variant-caps:normal;font-variant-numeric:normal;font-variant-east-asian:normal;fill:#ffffff;stroke-width:1.89979"
         x="587.17169"
         y="506.31683">铀石周结<tspan
   style="font-style:normal;font-variant:normal;font-weight:bold;font-stretch:normal;font-size:139.196px;font-family:'Source Han Serif TC';-inkscape-font-specification:'Source Han Serif TC, Bold';font-variant-ligatures:normal;font-variant-caps:normal;font-variant-numeric:normal;font-variant-east-asian:normal;fill:#ffffff;stroke-width:1.89979"
   id="tspan2197">001</tspan></tspan></text><text
       xml:space="preserve"
       style="font-style:normal;font-variant:normal;font-weight:900;font-stretch:normal;font-size:58.3476px;font-family:'Source Han Serif TC';-inkscape-font-specification:'Source Han Serif TC, Heavy';font-variant-ligatures:normal;font-variant-caps:normal;font-variant-numeric:normal;font-variant-east-asian:normal;fill:#d5fff6;stroke:none;stroke-width:3.00984;stroke-linecap:round;stroke-dasharray:none;stroke-dashoffset:0;stroke-opacity:1"
       x="856.00079"
       y="1048.5048"
       id="text2303"><tspan
         sodipodi:role="line"
         id="tspan2301"
         style="font-style:normal;font-variant:normal;font-weight:900;font-stretch:normal;font-size:58.3476px;font-family:'Source Han Serif TC';-inkscape-font-specification:'Source Han Serif TC, Heavy';font-variant-ligatures:normal;font-variant-caps:normal;font-variant-numeric:normal;font-variant-east-asian:normal;fill:#d5fff6;stroke:none;stroke-width:3.00984"
         x="856.00079"
         y="1048.5048">20220810</tspan></text><text
       xml:space="preserve"
       style="font-style:normal;font-variant:normal;font-weight:900;font-stretch:normal;font-size:49.5774px;font-family:'Source Han Serif TC';-inkscape-font-specification:'Source Han Serif TC, Heavy';font-variant-ligatures:normal;font-variant-caps:normal;font-variant-numeric:normal;font-variant-east-asian:normal;fill:#ffffff;stroke-width:6.10109;stroke-linecap:round"
       x="767.02008"
       y="683.32306"
       id="text983"><tspan
         sodipodi:role="line"
         id="tspan1037"
         x="767.02008"
         y="683.32306"
         style="display:inline;fill:#ffffff;stroke-width:6.10109">景行行止，高山仰止。</tspan></text></g><g
     inkscape:groupmode="layer"
     id="layer2"
     inkscape:label="图层 2"><rect
       style="display:inline;opacity:1;fill:#ffff00;stroke-width:3.79722;stroke-linecap:round"
       id="rect9125"
       width="1911.7435"
       height="1077.9154"
       x="2.3221426"
       y="-1077.6749"
       transform="scale(1,-1)" /><text
       xml:space="preserve"
       style="font-style:normal;font-variant:normal;font-weight:900;font-stretch:normal;font-size:153.774px;font-family:'Source Han Serif TC';-inkscape-font-specification:'Source Han Serif TC, Heavy';font-variant-ligatures:normal;font-variant-caps:normal;font-variant-numeric:normal;font-variant-east-asian:normal;opacity:0.993797;fill:#000000;stroke-width:11.7979;stroke-linecap:round"
       x="802.56317"
       y="515.55121"
       id="text9233"><tspan
         sodipodi:role="line"
         id="tspan9231"
         x="802.56317"
         y="515.55121"
         style="font-style:normal;font-variant:normal;font-weight:900;font-stretch:normal;font-size:153.774px;font-family:'Source Han Serif TC';-inkscape-font-specification:'Source Han Serif TC, Heavy';font-variant-ligatures:normal;font-variant-caps:normal;font-variant-numeric:normal;font-variant-east-asian:normal;stroke-width:11.7979">英语+</tspan></text><path
       style="fill:#000000;stroke-width:3.31642"
       d="m 1055.526,1072.5238 c -3.0421,-3.042 5.9429,-13.6587 11.5594,-13.6587 3.898,0 7.4766,-3.6857 9.66,-9.9493 1.9077,-5.4721 5.0384,-9.9493 6.9573,-9.9493 2.1047,0 3.489,-9.1002 3.489,-22.9363 0,-22.78994 -0.084,-23.00311 -13.2417,-33.42379 l -13.2416,-10.48756 -8.7049,6.84727 c -9.0061,7.08424 -14.5582,6.57868 -14.5582,-1.32563 0,-2.50548 -2.9847,-5.50275 -6.6328,-6.6606 -7.9602,-2.52648 -8.4055,-6.00773 -1.5012,-11.73775 4.108,-3.40934 4.2733,-4.8255 0.8291,-7.0996 -3.3168,-2.18991 -2.7829,-3.75675 2.3303,-6.83898 3.6481,-2.19903 7.3791,-4.16611 8.2911,-4.37127 0.912,-0.20516 4.0472,-1.43765 6.9671,-2.73886 12.2408,-5.45491 20.0416,1.38069 17.288,15.14888 -1.548,7.74008 -0.4228,9.74546 7.0662,12.59276 4.8991,1.86264 10.3028,3.38661 12.008,3.38661 4.1717,0 3.9782,-22.28106 -0.2159,-24.87315 -4.2999,-2.65751 -4.2999,-17.241 0,-19.89851 5.3837,-3.32731 3.859,-7.17272 -5.1965,-13.10614 -6.1369,-4.02101 -9.6933,-4.59835 -12.7418,-2.0684 -5.0761,4.21281 -8.593,1.3745 -8.593,-6.93493 0,-3.79211 -2.4046,-6.0801 -6.39,-6.0801 -11.1121,0 -22.6174,-32.50923 -13.4996,-38.14437 2.196,-1.35722 2.0989,-4.34691 -0.2859,-8.803 -2.9466,-5.50563 -2.2836,-7.98471 3.601,-13.46708 5.5859,-5.20405 6.7689,-9.08286 5.246,-17.20046 -1.7116,-9.1237 -0.6637,-11.25065 8.0913,-16.42233 6.7458,-3.98484 13.2269,-5.24507 19.6825,-3.82719 7.4438,1.63495 10.3909,0.6824 13.0059,-4.20362 4.393,-8.20852 25.7702,-8.02995 31.8364,0.26593 2.3694,3.24041 6.4289,4.88509 9.3197,3.77581 3.4904,-1.33941 9.5514,3.65941 19.0301,15.69538 7.6498,9.71341 15.801,18.75329 18.1141,20.08862 2.8197,1.62788 3.7268,7.63815 2.753,18.2403 -2.3499,25.58359 -3.8414,29.68845 -14.7525,40.59947 -8.6343,8.6344 -12.0433,10.00929 -20.3139,8.19278 -6.7355,-1.47938 -10.8572,-0.73263 -12.7896,2.3172 -4.2847,6.76208 -3.7416,102.33441 0.5814,102.33441 1.944,0 6.5802,-1.63 10.3027,-3.6222 5.2082,-2.78734 6.337,-5.77843 4.8974,-12.97652 -1.45,-7.24963 -0.2146,-10.4395 5.4909,-14.17783 6.394,-4.18952 7.946,-4.19806 11.8069,-0.0649 2.4449,2.61726 6.4216,4.00024 8.8372,3.07331 5.4709,-2.09941 12.87,6.302 9.8515,11.18607 -1.2261,1.98384 -0.2916,5.94168 2.0766,8.79521 3.5645,4.29496 3.4356,5.84006 -0.7491,8.97496 -2.7803,2.0825 -5.9905,6.2825 -7.1339,9.3329 -2.4186,6.4524 -15.2711,4.5363 -18.0441,-2.6902 -2.2627,-5.8964 -10.683,-5.8098 -12.9636,0.1335 -0.981,2.5563 -4.6576,5.3994 -8.1703,6.318 -15.76,4.1214 -8.1515,30.5779 11.2512,39.1229 5.785,2.5477 10.5182,6.8487 10.5182,9.5578 0,4.1167 -7.5335,4.9336 -45.877,4.9746 -25.2324,0.027 -46.4465,-0.5202 -47.1424,-1.2161 z m 59.7521,-5.7876 c 3.2121,-4.3928 5.2816,-4.679 11.144,-1.5415 5.9351,3.1763 7.1994,2.9588 7.1994,-1.2383 0,-2.8003 -1.9579,-5.0913 -4.351,-5.0913 -2.3929,0 -7.6488,-4.4608 -11.6797,-9.9129 -8.1002,-10.9561 -7.0218,-24.956 2.4853,-32.2661 4.7334,-3.6395 4.679,-4.0505 -0.5494,-4.1455 -5.2681,-0.096 -5.8037,-4.757 -5.8037,-50.51504 0,-40.32678 -0.8292,-49.58073 -4.1455,-46.26571 -4.1027,4.10109 -4.6722,13.14162 -6.716,106.62455 -0.9873,45.1594 2.5603,57.8311 12.4166,44.3518 z m 30.711,0.074 c -1.1021,-1.102 -3.9625,-1.2198 -6.3565,-0.2618 -2.6457,1.0586 -1.8598,1.8445 2.0036,2.0036 3.4961,0.1441 5.4548,-0.6398 4.3529,-1.7418 z m -62.1139,-88.84295 c 0,-0.71686 -2.3161,-2.19216 -5.1469,-3.27843 -2.9513,-1.13255 -4.2825,-0.57656 -3.1207,1.30338 1.9476,3.15128 8.2676,4.66106 8.2676,1.97505 z"
       id="path9391"
       sodipodi:nodetypes="sssssscssssssssssssssssssssssssssssssssssssssssssssssscsssssssssssssssssssss" /><path
       style="fill:#000000;stroke-width:1.10636"
       d="m 852.86346,1072.7885 c -55.84762,-8.8217 -98.14621,-54.9892 -102.02875,-111.36092 -3.57166,-51.85807 29.24418,-101.67268 78.92102,-119.80247 12.70137,-4.63542 26.41188,-6.92826 41.30023,-6.90669 54.45243,0.0789 101.49496,36.49045 115.79083,89.62372 2.59665,9.65091 2.88868,12.6982 2.88504,30.09921 0,16.40358 -0.36857,20.68449 -2.3896,28.02408 -7.58381,27.54207 -23.10384,51.05477 -44.36867,67.21857 -10.37853,7.8888 -29.51719,17.052 -42.69779,20.4427 -12.40511,3.1913 -35.75991,4.5025 -47.41231,2.6618 z m 18.09398,-13.6337 v -5.9218 l -18.15347,-8.4607 c -9.9844,-4.6535 -18.474,-8.4608 -18.86579,-8.4608 -0.39179,0 -0.56186,2.5659 -0.37794,5.702 l 0.33441,5.7022 18.25481,8.5763 c 10.04015,4.717 18.37927,8.6232 18.5314,8.6804 0.15212,0.057 0.27658,-2.5606 0.27658,-5.8176 z m 70.40784,-17.8113 c 41.11534,-32.8964 53.66826,-89.96201 30.13627,-136.99981 -7.94667,-15.8845 -21.12121,-31.30174 -35.85821,-41.96233 -7.94787,-5.7494 -21.67707,-12.34892 -32.60169,-15.67137 -9.77813,-2.97377 -24.33974,-5.32956 -24.33974,-3.93769 0,2.87442 5.02351,16.38648 6.81349,18.32665 1.19602,1.29639 6.2301,4.53248 11.18685,7.19129 15.56343,8.34831 28.52455,23.07679 32.96427,37.45924 1.8428,5.96968 2.02384,6.15308 8.64936,8.76104 l 6.76715,2.66375 v 27.03584 27.03586 l -8.09368,7.55861 c -7.31124,6.82789 -8.27897,8.23491 -10.01037,14.55449 -2.47839,9.04603 -9.43624,23.10163 -15.17242,30.64983 -4.47422,5.8876 -4.51485,6.0258 -3.74136,12.723 1.01201,8.7625 2.10813,11.5265 6.29037,15.8627 l 3.43372,3.56 7.37765,-3.8769 c 4.05771,-2.1322 11.34697,-7.0527 16.19834,-10.9342 z m -78.38516,-3.5418 c 1.39315,-0.8793 3.35233,-3.3167 4.35372,-5.4167 1.70888,-3.5835 2.15264,-3.818 7.22451,-3.818 4.97113,0 5.3755,-0.1993 5.05027,-2.4893 -0.32256,-2.2712 -0.97649,-2.5001 -7.46377,-2.6128 -6.19356,-0.1074 -7.22308,-0.4286 -7.98541,-2.4894 -0.84481,-2.2837 -0.58863,-2.3657 7.38683,-2.3657 6.60642,0 8.26199,-0.3326 8.26199,-1.6595 0,-1.3384 -1.76614,-1.6658 -9.1274,-1.692 -8.54197,-0.03 -9.35804,-0.2422 -12.72305,-3.3035 -1.9776,-1.799 -3.59565,-3.5121 -3.59565,-3.8067 0,-0.2947 6.34769,-0.6751 14.10599,-0.8454 l 14.10599,-0.3096 v -2.7659 -2.7659 l -17.4141,-0.3046 -17.41411,-0.3046 1.11951,2.5173 c 0.84325,1.8961 0.60387,3.8588 -0.97007,7.9535 l -2.08958,5.4362 -2.44339,-6.5305 c -1.34385,-3.5918 -2.7241,-8.9008 -3.0672,-11.79774 l -0.62382,-5.26719 h 15.64303 15.64303 v -74.77095 c 0,-55.87383 -0.32167,-74.66375 -1.27279,-74.34671 -0.70002,0.23334 -2.56699,4.1183 -4.14882,8.63321 -3.10035,8.84922 -3.15737,8.90527 -16.86159,16.57302 -8.03805,4.49743 -19.56159,14.85603 -24.48102,22.00617 -1.88374,2.73792 -4.71558,8.47442 -6.29298,12.74776 l -2.86801,7.76972 -6.88748,2.69918 -6.88749,2.6992 v 26.85609 26.8561 l 8.85082,8.03077 c 5.10417,4.63126 8.85082,8.91524 8.85082,10.12015 0,7.12179 12.81254,30.86342 22.12703,41.00142 9.09672,9.9009 15.12123,12.037 21.89419,7.7629 z m -1.1678,-115.44456 -3.06018,-45.91362 3.06018,-2.67521 3.06018,-2.67521 0.29796,24.60086 c 0.16388,13.53048 0.16388,35.39545 0,48.58883 l -0.29796,23.98796 z m -25.39256,36.57839 c -7.47153,-2.92089 -15.65103,-9.2787 -19.59212,-15.22864 -8.55884,-12.9215 -0.18024,-24.141 15.14959,-20.28631 10.92294,2.74659 19.78829,9.36526 24.48688,18.28134 2.55793,4.85395 3.00659,12.3112 0.90534,15.04801 -3.63699,4.73704 -12.15111,5.62528 -20.94969,2.1856 z m 72.70683,-2.70972 c 15.67156,-7.18777 23.97012,-21.61583 16.64556,-28.94037 -7.69113,-7.69115 -30.43124,1.73638 -37.02042,15.3478 -3.84289,7.93836 -2.97081,13.31992 2.56221,15.8114 4.28216,1.9282 10.44447,1.16059 17.81265,-2.21883 z"
       id="path9515" /><path
       style="opacity:1;fill:#000000;stroke:#000000;stroke-width:10;stroke-linecap:round;stroke-dasharray:none;stroke-opacity:1"
       d="m 691.96122,546.38215 617.48618,1.54644"
       id="path9597" /></g></svg>
